<?xml version="1.0" encoding="UTF-8" standalone="no"?>
<!DOCTYPE svg PUBLIC "-//W3C//DTD SVG 1.1//EN" "http://www.w3.org/Graphics/SVG/1.1/DTD/svg11.dtd">
<svg width="100%" height="100%" viewBox="0 0 590 628" version="1.1" xmlns="http://www.w3.org/2000/svg" xmlns:xlink="http://www.w3.org/1999/xlink" xml:space="preserve" xmlns:serif="http://www.serif.com/" style="fill-rule:evenodd;clip-rule:evenodd;stroke-linejoin:round;stroke-miterlimit:2;">
    <g transform="matrix(0.1,0,0,-0.1,-215.52,805.87)">
        <path d="M5059,8051C4967,8023 4918,7967 4895,7865L4884,7816L4814,7803C4484,7743 4116,7586 3892,7412L3868,7393L3898,7344C3914,7317 3938,7266 3951,7231C3976,7165 4024,7102 4090,7050L4129,7019L4212,7083C4258,7118 4310,7155 4328,7165C4357,7182 4360,7189 4360,7232C4360,7337 4424,7388 4548,7381C4560,7381 4587,7365 4607,7346L4644,7312L4710,7330C4746,7340 4795,7351 4820,7355C4845,7358 4881,7365 4900,7370C4919,7376 4970,7380 5012,7380L5089,7380L5092,7473L5095,7565L5138,7568L5180,7571L5180,7481C5180,7376 5169,7385 5312,7376C5360,7373 5441,7361 5492,7349C5543,7337 5595,7325 5608,7322C5624,7319 5636,7324 5646,7338C5666,7367 5742,7394 5782,7386C5861,7370 5930,7286 5917,7221C5910,7190 5926,7176 6125,7035C6135,7028 6155,7039 6197,7076C6245,7118 6265,7146 6315,7243C6348,7307 6381,7368 6388,7380C6400,7399 6394,7404 6301,7465C6085,7607 5748,7745 5505,7792C5445,7803 5389,7814 5383,7816C5376,7818 5370,7834 5370,7852C5369,7929 5290,8028 5213,8049C5170,8061 5097,8062 5059,8051Z" style="fill:white;fill-rule:nonzero;"/>
        <path d="M3476,7405C3305,7344 3247,7133 3365,7002C3426,6934 3497,6905 3586,6913C3621,6915 3657,6924 3666,6931C3679,6942 3772,6853 4353,6272L5024,5601L4370,4950C4010,4593 3710,4300 3704,4300C3698,4300 3679,4307 3662,4316C3587,4353 3479,4341 3407,4286C3359,4249 3314,4174 3304,4113C3289,4015 3355,3904 3456,3854C3502,3831 3520,3828 3569,3833C3715,3846 3813,3955 3815,4109L3816,4182L4473,4839L5130,5495L6454,4175L6451,4108C6444,3925 6604,3795 6775,3845C6925,3888 7001,4060 6931,4198C6920,4220 6890,4256 6864,4279C6791,4343 6713,4356 6618,4320C6589,4309 6561,4300 6555,4300C6547,4300 5348,5489 5269,5576L5241,5607L5895,6260C6255,6620 6555,6917 6563,6922C6571,6926 6592,6925 6611,6920C6663,6905 6750,6909 6799,6929C6850,6950 6911,7007 6937,7059C6961,7108 6961,7223 6937,7267C6871,7389 6753,7443 6629,7407C6494,7367 6420,7226 6455,7072L6462,7038L5796,6374L5129,5710L4464,6376C3878,6961 3799,7044 3806,7063C3811,7075 3814,7117 3814,7155C3814,7210 3809,7236 3790,7274C3729,7394 3598,7449 3476,7405Z" style="fill:white;fill-rule:nonzero;"/>
        <path d="M4875,7289C4820,7279 4751,7264 4721,7257C4668,7244 4667,7243 4655,7197C4648,7171 4635,7140 4624,7129C4580,7080 4491,7066 4430,7099L4395,7117L4310,7059C4263,7027 4214,6992 4200,6981L4175,6961L4654,6482L5132,6003L5607,6479C5942,6815 6079,6959 6073,6968C6069,6975 6022,7012 5970,7050L5875,7118L5844,7099C5804,7075 5719,7074 5680,7096C5647,7116 5623,7155 5612,7205C5605,7239 5600,7244 5560,7256C5493,7276 5284,7310 5229,7310L5180,7310L5180,7110C5180,6912 5180,6910 5203,6895C5256,6861 5265,6787 5222,6739C5199,6713 5184,6706 5142,6702C5093,6698 5088,6700 5055,6733C5030,6758 5020,6777 5020,6799C5020,6838 5043,6884 5072,6905C5094,6920 5095,6926 5098,7115L5102,7310L5038,7309C5004,7309 4930,7300 4875,7289Z" style="fill:white;fill-rule:nonzero;"/>
        <path d="M3306,6791C3169,6567 3047,6205 3024,5960C3015,5866 3014,5863 2972,5856C2922,5849 2874,5816 2833,5762C2770,5679 2766,5584 2823,5488C2857,5431 2916,5391 2979,5380L3014,5375L3036,5245C3058,5115 3083,5008 3115,4915C3171,4749 3330,4410 3352,4410C3357,4410 3374,4418 3388,4429C3424,4454 3484,4470 3546,4470C3598,4470 3598,4470 3676,4551C3720,4595 3755,4637 3754,4643C3753,4650 3727,4691 3695,4735C3664,4779 3635,4821 3633,4828C3630,4835 3608,4840 3573,4840C3543,4840 3505,4847 3489,4856C3456,4873 3420,4938 3420,4980C3420,5017 3455,5086 3483,5105L3508,5121L3483,5198C3455,5286 3430,5439 3430,5523L3430,5580L3270,5580L3270,5660L3418,5660L3425,5743C3431,5810 3451,5927 3486,6099C3489,6115 3483,6131 3467,6149C3431,6188 3420,6214 3420,6263C3420,6349 3493,6415 3580,6407C3624,6403 3627,6405 3644,6440C3654,6460 3680,6501 3701,6529C3723,6558 3740,6586 3738,6591C3736,6596 3698,6638 3652,6684C3574,6762 3565,6768 3517,6774C3457,6782 3391,6809 3371,6833C3364,6843 3354,6850 3349,6850C3345,6850 3325,6823 3306,6791Z" style="fill:white;fill-rule:nonzero;"/>
        <path d="M6878,6825C6830,6792 6800,6781 6737,6774C6689,6768 6682,6763 6611,6687C6569,6643 6532,6602 6528,6595C6523,6588 6532,6567 6549,6546C6565,6526 6593,6487 6610,6460C6641,6412 6644,6410 6686,6410C6777,6410 6832,6363 6845,6275C6853,6225 6839,6186 6800,6150L6770,6122L6785,6063C6793,6031 6802,5992 6805,5975C6807,5959 6812,5934 6815,5920C6822,5882 6828,5832 6835,5743L6842,5660L7000,5660L7000,5580L6840,5580L6839,5545C6838,5526 6837,5507 6836,5503C6835,5498 6830,5463 6826,5424C6822,5385 6806,5303 6791,5242L6763,5130L6788,5108C6830,5069 6852,5008 6841,4960C6822,4875 6777,4837 6697,4838L6645,4839L6580,4745C6545,4694 6514,4647 6512,4641C6510,4635 6543,4594 6585,4551L6661,4473L6738,4468C6800,4464 6825,4458 6864,4435L6912,4407L6930,4430C6939,4442 6982,4522 7024,4606C7131,4819 7220,5100 7245,5302C7253,5366 7258,5371 7315,5388C7424,5421 7485,5506 7485,5626C7485,5686 7481,5702 7457,5738C7422,5792 7357,5839 7308,5846C7287,5850 7268,5855 7266,5859C7264,5862 7260,5888 7256,5915C7246,6001 7222,6116 7191,6230C7179,6271 7168,6312 7166,6322C7139,6427 6985,6764 6938,6823L6915,6851L6878,6825Z" style="fill:white;fill-rule:nonzero;"/>
        <path d="M3783,6513C3777,6503 3752,6466 3727,6431L3683,6367L3700,6336C3730,6283 3733,6246 3711,6196C3689,6146 3642,6110 3598,6110C3574,6110 3569,6104 3556,6058C3534,5981 3511,5837 3507,5743L3502,5660L4125,5660L4153,5689C4189,5728 4229,5736 4276,5714C4325,5691 4347,5641 4331,5588C4309,5517 4211,5495 4160,5550L4132,5580L3502,5580L3506,5518C3517,5346 3556,5156 3584,5138C3590,5134 3605,5130 3616,5130C3644,5130 3687,5096 3707,5057C3728,5016 3727,4953 3706,4911C3689,4879 3689,4877 3714,4842C3728,4821 3760,4779 3785,4747L3831,4690L3868,4732C3889,4756 4089,4959 4313,5185C4537,5410 4719,5598 4718,5602C4716,5607 3799,6530 3795,6530C3795,6530 3790,6522 3783,6513Z" style="fill:white;fill-rule:nonzero;"/>
        <path d="M6265,6338C6160,6232 5954,6022 5805,5873L5536,5600L5989,5150C6239,4903 6446,4700 6449,4700C6452,4700 6474,4729 6498,4763C6521,4797 6550,4837 6561,4851L6582,4877L6561,4918C6534,4971 6535,5015 6563,5065C6581,5097 6595,5108 6633,5121C6659,5129 6682,5139 6685,5142C6696,5153 6748,5391 6755,5458C6758,5495 6764,5537 6766,5553L6772,5580L6451,5580C6198,5580 6129,5577 6123,5567C6098,5526 6031,5508 5987,5531C5907,5572 5915,5685 6000,5720C6038,5736 6071,5727 6114,5690L6148,5660L6772,5660L6765,5728C6757,5811 6751,5858 6745,5890C6742,5904 6738,5926 6735,5940C6732,5954 6723,5998 6713,6038C6698,6104 6694,6110 6671,6110C6570,6110 6509,6234 6560,6334L6579,6372L6540,6429C6499,6487 6464,6530 6458,6530C6456,6530 6369,6443 6265,6338Z" style="fill:white;fill-rule:nonzero;"/>
        <path d="M4668,4741C4416,4489 4210,4279 4210,4274C4210,4269 4243,4243 4282,4215C4394,4137 4391,4138 4436,4160C4506,4196 4584,4181 4629,4124C4641,4109 4650,4087 4650,4075C4650,4063 4656,4048 4663,4042C4682,4027 4910,3981 5005,3974L5090,3967L5090,4110C5090,4250 5090,4252 5065,4272C5020,4307 5010,4338 5026,4392C5038,4432 5046,4441 5085,4460C5139,4486 5176,4481 5214,4441C5267,4386 5264,4324 5206,4271C5180,4247 5180,4245 5180,4102L5180,3958L5208,3964C5223,3966 5262,3972 5295,3975C5327,3979 5363,3984 5375,3986C5386,3989 5427,3997 5465,4005C5614,4037 5604,4032 5619,4078C5646,4165 5758,4207 5836,4161L5873,4139L5944,4187C5983,4213 6025,4242 6038,4251C6060,4268 6058,4270 5598,4734C5343,4990 5133,5200 5130,5200C5127,5199 4919,4993 4668,4741Z" style="fill:white;fill-rule:nonzero;"/>
        <path d="M6074,4189C6052,4172 6009,4140 5978,4119C5925,4083 5920,4076 5920,4043C5920,3993 5884,3922 5846,3898C5822,3883 5802,3880 5751,3883C5686,3886 5669,3896 5635,3954C5626,3969 5620,3969 5555,3951C5517,3940 5465,3929 5440,3925C5416,3921 5393,3917 5390,3915C5384,3911 5332,3904 5243,3895L5180,3888L5180,3670L5090,3670L5090,3780C5090,3887 5089,3890 5068,3890C5028,3891 4937,3902 4860,3916C4758,3934 4742,3937 4688,3953C4643,3967 4642,3967 4631,3944C4614,3906 4562,3880 4505,3880C4417,3881 4370,3926 4361,4020L4355,4078L4257,4144C4203,4180 4154,4210 4147,4210C4140,4210 4097,4173 4052,4127C3994,4069 3954,4017 3920,3955C3892,3907 3871,3866 3872,3864C3874,3863 3918,3835 3970,3802C4210,3652 4449,3558 4724,3505C4796,3491 4865,3477 4878,3474C4896,3470 4900,3463 4900,3429C4900,3378 4919,3333 4961,3285C5053,3181 5225,3183 5310,3290C5344,3333 5370,3398 5370,3441C5370,3466 5374,3470 5408,3475C5661,3518 5899,3592 6120,3698C6185,3729 6331,3812 6372,3841L6401,3862L6380,3893C6369,3911 6345,3952 6329,3985C6309,4023 6266,4077 6212,4133C6164,4181 6123,4220 6119,4220C6116,4220 6095,4206 6074,4189Z" style="fill:white;fill-rule:nonzero;"/>
        <g transform="matrix(2.77898,0,0,-2.77898,-87.4813,3430.65)">
            <g transform="matrix(395.6,0,0,395.6,2477.54,495.755)">
                <rect x="0.069" y="-0.424" width="0.332" height="0.12" style="fill:white;"/>
            </g>
            <g>
                <g transform="matrix(1,0,0,1,809.16,495.755)">
                    <g transform="matrix(395.6,0,0,395.6,0,0)">
                        <path d="M0.063,-0L0.217,-0L0.217,-0.236L0.346,-0.236C0.513,-0.236 0.611,-0.336 0.611,-0.481C0.611,-0.625 0.515,-0.727 0.35,-0.727L0.063,-0.727L0.063,-0ZM0.217,-0.359L0.217,-0.602L0.321,-0.602C0.409,-0.602 0.452,-0.553 0.452,-0.481C0.452,-0.409 0.409,-0.359 0.321,-0.359L0.217,-0.359Z" style="fill:white;fill-rule:nonzero;"/>
                    </g>
                    <g transform="matrix(395.6,0,0,395.6,256.241,0)">
                        <path d="M0.732,-0.364C0.732,-0.602 0.584,-0.737 0.391,-0.737C0.197,-0.737 0.05,-0.602 0.05,-0.364C0.05,-0.127 0.197,0.01 0.391,0.01C0.584,0.01 0.732,-0.126 0.732,-0.364ZM0.576,-0.364C0.576,-0.21 0.502,-0.126 0.391,-0.126C0.279,-0.126 0.206,-0.21 0.206,-0.364C0.206,-0.518 0.279,-0.601 0.391,-0.601C0.502,-0.601 0.576,-0.518 0.576,-0.364Z" style="fill:white;fill-rule:nonzero;"/>
                    </g>
                    <g transform="matrix(395.6,0,0,395.6,565.584,0)">
                        <path d="M0.672,-0.727L0.518,-0.727L0.518,-0.27L0.512,-0.27L0.198,-0.727L0.063,-0.727L0.063,-0L0.217,-0L0.217,-0.458L0.222,-0.458L0.539,-0L0.672,-0L0.672,-0.727Z" style="fill:white;fill-rule:nonzero;"/>
                    </g>
                    <g transform="matrix(395.6,0,0,395.6,856.384,0)">
                        <path d="M0.036,-0.6L0.258,-0.6L0.258,-0L0.41,-0L0.41,-0.6L0.633,-0.6L0.633,-0.727L0.036,-0.727L0.036,-0.6Z" style="fill:white;fill-rule:nonzero;"/>
                    </g>
                    <g transform="matrix(395.6,0,0,395.6,1120.77,0)">
                        <path d="M0.512,-0.727L0.512,-0.268C0.512,-0.185 0.454,-0.125 0.365,-0.125C0.276,-0.125 0.217,-0.185 0.217,-0.268L0.217,-0.727L0.063,-0.727L0.063,-0.255C0.063,-0.096 0.183,0.01 0.365,0.01C0.545,0.01 0.666,-0.096 0.666,-0.255L0.666,-0.727L0.512,-0.727Z" style="fill:white;fill-rule:nonzero;"/>
                    </g>
                    <g transform="matrix(395.6,0,0,395.6,1409.33,0)">
                        <path d="M0.458,-0.518L0.605,-0.518C0.603,-0.648 0.496,-0.737 0.335,-0.737C0.175,-0.737 0.058,-0.649 0.059,-0.517C0.059,-0.41 0.134,-0.348 0.257,-0.319L0.336,-0.299C0.415,-0.28 0.46,-0.257 0.46,-0.208C0.46,-0.155 0.409,-0.119 0.331,-0.119C0.251,-0.119 0.194,-0.156 0.189,-0.228L0.04,-0.228C0.044,-0.071 0.156,0.01 0.333,0.01C0.51,0.01 0.615,-0.075 0.615,-0.208C0.615,-0.329 0.523,-0.393 0.397,-0.422L0.332,-0.437C0.268,-0.452 0.216,-0.475 0.217,-0.527C0.217,-0.574 0.258,-0.609 0.333,-0.609C0.407,-0.609 0.452,-0.575 0.458,-0.518Z" style="fill:white;fill-rule:nonzero;"/>
                    </g>
                </g>
                <g transform="matrix(1,0,0,1,2642.32,495.755)">
                    <g transform="matrix(395.6,0,0,395.6,0,0)">
                        <path d="M0.207,-0.727L0.033,-0.727L0.256,-0.364L0.029,-0L0.205,-0L0.354,-0.248L0.36,-0.248L0.509,-0L0.686,-0L0.459,-0.364L0.681,-0.727L0.507,-0.727L0.36,-0.479L0.354,-0.479L0.207,-0.727Z" style="fill:white;fill-rule:nonzero;"/>
                    </g>
                </g>
            </g>
        </g>
    </g>
</svg>
