<svg width="292" height="58" viewBox="0 0 292 58" fill="none" xmlns="http://www.w3.org/2000/svg">
<path d="M0.650568 57.0909V9.09091H13.1051V15.1818H13.3778C13.8324 14 14.4991 12.9167 15.3778 11.9318C16.2566 10.9318 17.3475 10.1364 18.6506 9.54545C19.9536 8.93939 21.4688 8.63636 23.196 8.63636C25.4991 8.63636 27.6884 9.25 29.7642 10.4773C31.8551 11.7045 33.5521 13.6364 34.8551 16.2727C36.1733 18.9091 36.8324 22.3333 36.8324 26.5455C36.8324 30.5758 36.2036 33.9167 34.946 36.5682C33.7036 39.2197 32.0369 41.197 29.946 42.5C27.8703 43.803 25.59 44.4545 23.1051 44.4545C21.4688 44.4545 20.0066 44.1894 18.7188 43.6591C17.446 43.1136 16.3551 42.3788 15.446 41.4545C14.5521 40.5152 13.8627 39.4545 13.3778 38.2727H13.196V57.0909H0.650568ZM12.9233 26.5455C12.9233 28.2424 13.143 29.7121 13.5824 30.9545C14.0369 32.1818 14.6733 33.1364 15.4915 33.8182C16.3248 34.4848 17.3172 34.8182 18.4688 34.8182C19.6203 34.8182 20.5975 34.4924 21.4006 33.8409C22.2188 33.1742 22.84 32.2273 23.2642 31C23.7036 29.7576 23.9233 28.2727 23.9233 26.5455C23.9233 24.8182 23.7036 23.3409 23.2642 22.1136C22.84 20.8712 22.2188 19.9242 21.4006 19.2727C20.5975 18.6061 19.6203 18.2727 18.4688 18.2727C17.3172 18.2727 16.3248 18.6061 15.4915 19.2727C14.6733 19.9242 14.0369 20.8712 13.5824 22.1136C13.143 23.3409 12.9233 24.8182 12.9233 26.5455ZM58.9062 44.6364C55.1184 44.6364 51.8759 43.8864 49.179 42.3864C46.482 40.8712 44.4138 38.7652 42.9744 36.0682C41.535 33.3561 40.8153 30.2121 40.8153 26.6364C40.8153 23.0606 41.535 19.9242 42.9744 17.2273C44.4138 14.5152 46.482 12.4091 49.179 10.9091C51.8759 9.39394 55.1184 8.63636 58.9062 8.63636C62.6941 8.63636 65.9366 9.39394 68.6335 10.9091C71.3305 12.4091 73.3987 14.5152 74.8381 17.2273C76.2775 19.9242 76.9972 23.0606 76.9972 26.6364C76.9972 30.2121 76.2775 33.3561 74.8381 36.0682C73.3987 38.7652 71.3305 40.8712 68.6335 42.3864C65.9366 43.8864 62.6941 44.6364 58.9062 44.6364ZM58.9972 35.3636C60.0578 35.3636 60.9744 35.0076 61.7472 34.2955C62.5199 33.5833 63.1184 32.5682 63.5426 31.25C63.9669 29.9318 64.179 28.3636 64.179 26.5455C64.179 24.7121 63.9669 23.1439 63.5426 21.8409C63.1184 20.5227 62.5199 19.5076 61.7472 18.7955C60.9744 18.0833 60.0578 17.7273 58.9972 17.7273C57.8759 17.7273 56.9138 18.0833 56.1108 18.7955C55.3078 19.5076 54.6941 20.5227 54.2699 21.8409C53.8456 23.1439 53.6335 24.7121 53.6335 26.5455C53.6335 28.3636 53.8456 29.9318 54.2699 31.25C54.6941 32.5682 55.3078 33.5833 56.1108 34.2955C56.9138 35.0076 57.8759 35.3636 58.9972 35.3636ZM94.6335 24.3636V44H82.0881V9.09091H93.9972V15.7273H94.3608C95.1184 13.5152 96.4517 11.7803 98.3608 10.5227C100.285 9.26515 102.527 8.63636 105.088 8.63636C107.558 8.63636 109.702 9.20455 111.52 10.3409C113.353 11.4621 114.77 13.0076 115.77 14.9773C116.785 16.947 117.285 19.197 117.27 21.7273V44H104.724V24.3636C104.74 22.6364 104.3 21.2803 103.406 20.2955C102.527 19.3106 101.3 18.8182 99.7244 18.8182C98.6941 18.8182 97.7926 19.0455 97.0199 19.5C96.2623 19.9394 95.679 20.5758 95.2699 21.4091C94.8608 22.2273 94.6487 23.2121 94.6335 24.3636ZM144.281 9.09091V18.1818H121.281V9.09091H144.281ZM125.736 0.727272H138.281V32.7727C138.281 33.2576 138.365 33.6667 138.531 34C138.698 34.3182 138.955 34.5606 139.304 34.7273C139.652 34.8788 140.099 34.9545 140.645 34.9545C141.024 34.9545 141.463 34.9091 141.963 34.8182C142.478 34.7273 142.857 34.6515 143.099 34.5909L144.918 43.4091C144.357 43.5758 143.554 43.7803 142.509 44.0227C141.478 44.2652 140.251 44.4242 138.827 44.5C135.948 44.6515 133.531 44.3561 131.577 43.6136C129.622 42.8561 128.152 41.6667 127.168 40.0455C126.183 38.4242 125.705 36.3939 125.736 33.9545V0.727272ZM172.037 28.7273V9.09091H184.582V44H172.673V37.3636H172.31C171.552 39.5909 170.226 41.3333 168.332 42.5909C166.438 43.8333 164.188 44.4545 161.582 44.4545C159.143 44.4545 157.007 43.8939 155.173 42.7727C153.355 41.6515 151.938 40.1061 150.923 38.1364C149.923 36.1667 149.416 33.9091 149.401 31.3636V9.09091H161.946V28.7273C161.961 30.4545 162.401 31.8106 163.264 32.7955C164.143 33.7803 165.37 34.2727 166.946 34.2727C167.991 34.2727 168.893 34.053 169.651 33.6136C170.423 33.1591 171.014 32.5227 171.423 31.7045C171.848 30.8712 172.052 29.8788 172.037 28.7273ZM222.872 20.4545H211.327C211.266 19.7424 211.016 19.1288 210.577 18.6136C210.137 18.0985 209.569 17.7045 208.872 17.4318C208.19 17.1439 207.433 17 206.599 17C205.524 17 204.599 17.197 203.827 17.5909C203.054 17.9848 202.675 18.5455 202.69 19.2727C202.675 19.7879 202.895 20.2652 203.349 20.7045C203.819 21.1439 204.721 21.4848 206.054 21.7273L213.145 23C216.721 23.6515 219.38 24.75 221.122 26.2955C222.88 27.8258 223.766 29.8788 223.781 32.4545C223.766 34.9394 223.024 37.0985 221.554 38.9318C220.099 40.75 218.107 42.1591 215.577 43.1591C213.062 44.1439 210.19 44.6364 206.963 44.6364C201.63 44.6364 197.455 43.5455 194.44 41.3636C191.44 39.1818 189.766 36.303 189.418 32.7273H201.872C202.039 33.8333 202.584 34.6894 203.509 35.2955C204.448 35.8864 205.63 36.1818 207.054 36.1818C208.205 36.1818 209.152 35.9848 209.895 35.5909C210.652 35.197 211.039 34.6364 211.054 33.9091C211.039 33.2424 210.705 32.7121 210.054 32.3182C209.418 31.9242 208.418 31.6061 207.054 31.3636L200.872 30.2727C197.312 29.6515 194.645 28.4697 192.872 26.7273C191.099 24.9848 190.221 22.7424 190.236 20C190.221 17.5758 190.857 15.5227 192.145 13.8409C193.448 12.1439 195.304 10.8561 197.713 9.97727C200.137 9.08333 203.009 8.63636 206.327 8.63636C211.372 8.63636 215.349 9.68182 218.259 11.7727C221.183 13.8636 222.721 16.7576 222.872 20.4545ZM251.497 20.7273V30.1818H229.679V20.7273H251.497ZM268.344 9.09091L273.435 19.9091L278.798 9.09091H291.253L281.889 26.5455L291.707 44H279.344L273.435 32.9091L267.707 44H255.162L265.071 26.5455L255.798 9.09091H268.344Z" fill="black"/>
</svg>
