<?xml version="1.0" encoding="UTF-8"?>
<svg id="Ebene_1" data-name="Ebene 1" xmlns="http://www.w3.org/2000/svg" xmlns:xlink="http://www.w3.org/1999/xlink" viewBox="0 0 473.6099 85.0394">
  <defs>
    <style>
      .cls-1 {
        fill: #4e4e4e;
      }

      .cls-2 {
        clip-path: url(#clippath);
      }

      .cls-3 {
        fill: none;
      }

      .cls-4 {
        fill: #b90f22;
      }
    </style>
    <clipPath id="clippath">
      <rect class="cls-3" x="-13.8048" y="-12.0704" width="337.8411" height="109.1802"/>
    </clipPath>
  </defs>
  <g class="cls-2">
    <path class="cls-4" d="m254.2197,68.4417h3.8952c-.1308-1.1773-.8575-1.8459-1.9767-1.8459-1.061,0-1.7005.625-1.9186,1.8459m-11.9662-16.1624c0-.8866-.2616-1.5116-.7849-1.9476-.3634-.2907-.8139-.4506-1.279-.4506-1.279,0-2.0639.9157-2.0639,2.4273,0,1.4825.7849,2.4127,2.0058,2.4127,1.279,0,2.122-.9738,2.122-2.4418m-28.6366,18.0954c0,.6977.5232,1.2064,1.25,1.2064.6104,0,1.1192-.2326,1.9331-.8866v-1.061c-.7994-.3924-1.2645-.5232-1.7877-.5232-.843,0-1.3953.5087-1.3953,1.2645m-1.6286-18.6478h3.8952c-.1308-1.1773-.8575-1.8459-1.9767-1.8459-1.061,0-1.7005.625-1.9186,1.8459m-28.1584-1.8459c-1.279,0-2.0348.9302-2.0348,2.4854,0,1.4244.7849,2.3691,1.9622,2.3691,1.25,0,2.0348-.9157,2.0348-2.3691,0-1.5261-.7558-2.4854-1.9622-2.4854m8.728,2.4854c0,1.4244.7849,2.3691,1.9622,2.3691,1.25,0,2.0348-.9157,2.0348-2.3691,0-1.5261-.7558-2.4854-1.9622-2.4854-1.279,0-2.0348.9302-2.0348,2.4854m9.4561-2.4854c-1.2354,0-2.0203.9302-2.0203,2.3837,0,1.3808.8139,2.311,2.0058,2.311,1.25,0,2.0784-.9157,2.0784-2.311,0-.9011-.2616-1.5261-.8285-1.9476-.3779-.2907-.7994-.436-1.2354-.436m-.6366-14.2293c0,1.4244.7849,2.3691,1.9622,2.3691,1.25,0,2.0348-.9157,2.0348-2.3691,0-1.5261-.7558-2.4854-1.9622-2.4854-1.279,0-2.0348.9302-2.0348,2.4854m-3.8575,33.3276c0-.9011-.2616-1.5261-.8285-1.9476-.3779-.2907-.7994-.436-1.2354-.436-1.2354,0-2.0203.9302-2.0203,2.3837,0,1.3808.8139,2.311,2.0058,2.311,1.25,0,2.0784-.9157,2.0784-2.311m-18.6434-.5378h3.8952c-.1308-1.1773-.8575-1.8459-1.9767-1.8459-1.061,0-1.7005.625-1.9186,1.8459m-12.5847-32.7898c0-1.5261-.7558-2.4854-1.9622-2.4854-1.279,0-2.0348.9302-2.0348,2.4854,0,1.4244.7849,2.3691,1.9622,2.3691,1.25,0,2.0348-.9157,2.0348-2.3691m-14.6769,16.0751h3.8952c-.1308-1.1773-.8575-1.8459-1.9767-1.8459-1.061,0-1.7005.625-1.9186,1.8459m.5029,16.7147h3.8952c-.1308-1.1773-.8575-1.8459-1.9767-1.8459-1.061,0-1.7005.625-1.9186,1.8459m1.3604-36.1327c0-.6686-.2762-1.2645-.7558-1.5697-.3924-.2616-.8866-.3488-2.093-.3488h-.7994v3.8226c.6977.0145.8285.0145.9738.0145.9593,0,1.4244-.0727,1.8459-.3052.4942-.2762.8285-.9157.8285-1.6133m20.3868,3.2557c0-.8866-.2616-1.5116-.7841-1.9476-.3634-.2907-.8139-.4506-1.279-.4506-1.279,0-2.0646.9157-2.0646,2.4273,0,1.4825.7856,2.4127,2.0065,2.4127,1.279,0,2.1213-.9738,2.1213-2.4418m62.0412,2.5871c.6104,0,1.1192-.2326,1.9331-.8866v-1.061c-.7994-.3924-1.2645-.5232-1.7877-.5232-.843,0-1.3953.5087-1.3953,1.2645,0,.6977.5232,1.2064,1.25,1.2064m15.3194,0c.6104,0,1.1192-.2326,1.9331-.8866v-1.061c-.7994-.3924-1.2645-.5232-1.7877-.5232-.843,0-1.3953.5087-1.3953,1.2645,0,.6977.5232,1.2064,1.25,1.2064m9.8994-2.6017c0-.9011-.2616-1.5261-.8285-1.9476-.3779-.2907-.7994-.436-1.2354-.436-1.2354,0-2.0203.9302-2.0203,2.3837,0,1.3808.8139,2.311,2.0058,2.311,1.25,0,2.0784-.9157,2.0784-2.311m3.9011-.5378h3.8952c-.1308-1.1773-.8575-1.8459-1.9767-1.8459-1.061,0-1.7005.625-1.9186,1.8459m18.6274,0h3.8945c-.1308-1.1773-.8575-1.8459-1.976-1.8459-1.0617,0-1.7013.625-1.9186,1.8459m19.3592,3.9388c0,1.1918-.436,1.8023-1.4534,1.9912v-.8866c.3779-.0727.6104-.4796.5814-1.0319h-.5232v-1.4098h1.3953v1.3372Zm-2.5886-.0291c-.2762.1453-.5668.2035-1.0319.2035-.6977,0-1.1918-.1889-1.4098-.5668-.1599-.2471-.2035-.4942-.2035-1.1628v-4.2441l-1.0029.0291v-1.0319l1.0029.0291v-1.3953l1.2064-.9593v2.3546l1.4098-.0291v1.061l-1.4098-.0291v4.0406c0,.5959.1599.7849.6686.7849.2907,0,.5232-.0436.7703-.1163v1.0319Zm-4.715-.8575l1.0756-.0145v.9883h-.436c-.218-.0145-.3634-.0145-.4215-.0145h-.4506c-.0581,0-.2326,0-.4796.0145h-.4942v-4.6074c0-.9011-.3052-1.2645-1.0465-1.2645-.5814,0-1.2064.3343-1.7732.9447v3.9534l1.0756-.0145v.9883c-.7849-.0145-.8575-.0145-1.061-.0145h-1.2209c-.1889,0-.2616,0-1.061.0145v-.9883l1.061.0145v-4.9708l-1.061.0291v-1.0029c.5087.0291.7558.0291,1.0465.0291h.436c.1889,0,.2326,0,.7849-.0145l-.0145.7994c.9011-.6831,1.3808-.8866,2.1656-.8866.5668,0,1.0901.1889,1.3953.4942.3488.3488.4796.8139.4796,1.7587v3.7644Zm-12.0847-2.1511c.0436.6395.2028,1.0901.5523,1.4971.3488.407,1.0465.7122,1.6133.7122.407,0,1.0465-.2326,1.4098-.5087.2173-.1744.3779-.3343.6541-.7267l1.0465.407c-.7703,1.1773-1.9186,1.8459-3.1692,1.8459-1.9324,0-3.3277-1.4534-3.3277-3.4883,0-2.0494,1.4098-3.6046,3.2703-3.6046,1.1475,0,2.1656.625,2.7034,1.6569.3198.625.4506,1.2645.4506,2.2092h-5.2033Zm-1.5712,3.1249c-.4215-.0145-.5814-.0145-.9302-.0145h-.5814c-.1744,0-.3488,0-.7558.0145v-4.7528c0-.7558-.3052-1.1192-.9593-1.1192-.6686,0-1.2354.3343-1.7877,1.0319v3.8662l1.061-.0145v.9883c-.4506-.0145-.6541-.0145-.9302-.0145h-.5232c-.2326,0-.3924,0-.8139.0145v-4.622c0-.5523-.0291-.6977-.1889-.9157s-.4651-.3488-.8139-.3488c-.6395,0-1.2645.3634-1.7732,1.0465v3.8662l1.0756-.0145v.9883c-.4215-.0145-.5668-.0145-1.061-.0145h-1.2354c-.4942,0-.625,0-1.0465.0145v-.9883l1.061.0145v-4.9708l-1.061.0291v-1.0029c.5087.0291.7413.0291,1.0465.0291h.4215c.1599,0,.218,0,.7994-.0145l-.0145.8139c.8575-.6977,1.3808-.9157,2.1366-.9157.8721,0,1.3517.2762,1.7441,1.0029.8139-.7413,1.3517-.9883,2.1656-.9883.625,0,1.1337.2035,1.4825.5668.3343.3634.4215.6831.4215,1.5407v3.9098l1.061-.0145v.9883Zm-17.0562-3.1249c.0436.6395.2035,1.0901.5523,1.4971s1.0465.7122,1.6133.7122c.407,0,1.0465-.2326,1.4098-.5087.218-.1744.3779-.3343.6541-.7267l1.0465.407c-.7703,1.1773-1.9186,1.8459-3.1685,1.8459-1.9331,0-3.3284-1.4534-3.3284-3.4883,0-2.0494,1.4098-3.6046,3.2703-3.6046,1.1482,0,2.1656.625,2.7034,1.6569.3198.625.4506,1.2645.4506,2.2092h-5.2033Zm-1.6046-2.7906l-1.061-.0145v4.2877c0,1.6569-.0145,1.9331-.1017,2.3401-.3343,1.4098-1.4244,2.1366-3.1976,2.1366-1.061,0-1.8023-.2471-2.8342-.9593l.625-.9011c.7122.5378,1.3808.7558,2.2528.7558,1.4389,0,2.0784-.7703,2.0784-2.4854v-.407c-.6395.6831-1.4825,1.0465-2.3546,1.0465-1.7732,0-3.0377-1.4244-3.0377-3.4156,0-2.0058,1.3081-3.4592,3.0958-3.4592.8866,0,1.686.3488,2.2964,1.0174l-.0291-.9302h.2616c.2326,0,.3924,0,.4506.0145h.5232l.625-.0145c.0727,0,.2035,0,.407-.0145v1.0029Zm-7.9664,5.9155c-.7122-.0145-.7849-.0145-1.0174-.0145h-.7558c-.1308,0-.2471,0-.4942.0145v-.7703c-.6541.5668-1.3808.8575-2.1366.8575-1.3372,0-2.3255-.9302-2.3255-2.1802,0-1.279,1.0465-2.2092,2.4999-2.2092.6541,0,1.0319.1017,1.9622.5087v-.7558c0-.5523-.1017-.8721-.3634-1.0901-.2907-.2471-.7267-.3779-1.2209-.3779-.8139,0-1.3662.3198-1.6715.9447l-.9883-.2907c.3488-1.0029,1.468-1.6279,2.8924-1.6279.843,0,1.5552.2471,2.0203.6831.4215.3924.5378.7994.5378,1.8168v3.5173l1.061-.0145v.9883Zm-7.3486,0h-.436c-.218-.0145-.3634-.0145-.4215-.0145h-.4506c-.0581,0-.2326,0-.4796.0145h-.4942v-4.6074c0-.9011-.3052-1.2645-1.0465-1.2645-.5814,0-1.2064.3343-1.7732.9447v3.9534l1.0756-.0145v.9883c-.7849-.0145-.8575-.0145-1.061-.0145h-1.2209c-.1889,0-.2616,0-1.061.0145v-.9883l1.061.0145v-4.9708l-1.061.0291v-1.0029c.5087.0291.7558.0291,1.0465.0291h.436c.1889,0,.2326,0,.7849-.0145l-.0145.7994c.9011-.6831,1.3808-.8866,2.1656-.8866.5668,0,1.0901.1889,1.3953.4942.3488.3488.4796.8139.4796,1.7587v3.7644l1.0756-.0145v.9883Zm-7.9707,0c-.7122-.0145-.7849-.0145-1.0174-.0145h-.7558c-.1308,0-.2471,0-.4942.0145v-.7703c-.6541.5668-1.3808.8575-2.1366.8575-1.3372,0-2.3255-.9302-2.3255-2.1802,0-1.279,1.0465-2.2092,2.4999-2.2092.6541,0,1.0319.1017,1.9622.5087v-.7558c0-.5523-.1017-.8721-.3634-1.0901-.2907-.2471-.7267-.3779-1.2209-.3779-.8139,0-1.3662.3198-1.6715.9447l-.9883-.2907c.3488-1.0029,1.468-1.6279,2.8924-1.6279.843,0,1.5552.2471,2.0203.6831.4215.3924.5378.7994.5378,1.8168v3.5173l1.061-.0145v.9883Zm-7.3712,0c-.4222-.0145-.5821-.0145-.9302-.0145h-.5821c-.1744,0-.3481,0-.7558.0145v-4.7528c0-.7558-.3045-1.1192-.9593-1.1192-.6679,0-1.2354.3343-1.787,1.0319v3.8662l1.0603-.0145v.9883c-.4498-.0145-.6541-.0145-.9295-.0145h-.524c-.2326,0-.3924,0-.8132.0145v-4.622c0-.5523-.0291-.6977-.1897-.9157-.1592-.218-.4644-.3488-.8139-.3488-.6395,0-1.2638.3634-1.7732,1.0465v3.8662l1.0763-.0145v.9883c-.4222-.0145-.5668-.0145-1.061-.0145h-1.2354c-.4942,0-.625,0-1.0465.0145v-.9883l1.061.0145v-4.9708l-1.061.0291v-1.0029c.508.0291.7405.0291,1.0465.0291h.4208c.1599,0,.2187,0,.7994-.0145l-.0138.8139c.8575-.6977,1.3808-.9157,2.1366-.9157.8713,0,1.3517.2762,1.7441,1.0029.8132-.7413,1.351-.9883,2.1649-.9883.6257,0,1.1337.2035,1.4832.5668.3336.3634.4215.6831.4215,1.5407v3.9098l1.061-.0145v.9883Zm-11.576,9.8108c.7413.0145.8139.0145,1.0319.0145h.4506c.1889,0,.2326,0,.7558-.0145v4.8109c0,.6831.3779,1.061,1.0319,1.061.6104,0,1.2936-.407,1.7732-1.061v-3.8516l-1.0756.0291v-1.0029c.5087.0291.7413.0291,1.0465.0291h.4651c.2471,0,.4215,0,.7703-.0145v5.9301l1.0319-.0145v.9883c-.7413-.0145-.8139-.0145-1.0319-.0145h-.4506c-.0436,0-.2035,0-.436.0145h-.3198l.0145-.8721c-.6395.6395-1.3517.9593-2.1511.9593-1.2209,0-1.8749-.6831-1.8749-1.9476v-4.0842l-1.0319.0291v-.9883Zm-4.7186-14.9269c0,.5378.3634.7558,1.7877,1.061,1.0319.218,1.4534.3634,1.8459.6395.4506.3052.7267.843.7267,1.4244,0,1.2064-1.061,2.093-2.5145,2.093-.7711,0-1.1482-.1453-2.0494-.7703l.0145.6831h-.9883c.0145-.4651.0145-.6686.0145-1.1918,0-.5523,0-.8139-.0145-1.2936h1.0029c-.0145.0872-.0145.218-.0145.2616,0,.7122.8721,1.3226,1.8895,1.3226.8575,0,1.4825-.4215,1.4825-1.0029,0-.3198-.1599-.5523-.5378-.7122q-.3198-.1453-1.7296-.4942c-1.4251-.3634-2.0784-.9593-2.0784-1.9186,0-1.1192,1.0029-1.9767,2.2819-1.9767.6541,0,1.2354.218,1.8749.6977l.0436-.5668h.9883l-.0145.3488c-.0145.4215-.0145.6977-.0145.7994,0,.0872,0,.3779.0145.7994,0,.0581,0,.2035.0145.3779h-1.0174l-.0145-.218c0-.3634-.0581-.4796-.3924-.7558-.3488-.3052-.8575-.4796-1.3662-.4796-.7267,0-1.2354.3634-1.2354.8721m-1.8866,5.1161h-.436c-.218-.0145-.3634-.0145-.4215-.0145h-.4506c-.0581,0-.2326,0-.4796.0145h-.4942v-4.6074c0-.9011-.3052-1.2645-1.0465-1.2645-.5814,0-1.2064.3343-1.7732.9447v3.9534l1.0756-.0145v.9883c-.7849-.0145-.8575-.0145-1.061-.0145h-1.2209c-.1889,0-.2616,0-1.061.0145v-.9883l1.061.0145v-4.9708l-1.061.0291v-1.0029c.5087.0291.7558.0291,1.0465.0291h.436c.1889,0,.2326,0,.7849-.0145l-.0145.7994c.9011-.6831,1.3808-.8866,2.1656-.8866.5668,0,1.0901.1889,1.3953.4942.3488.3488.4796.8139.4796,1.7587v3.7644l1.0756-.0145v.9883Zm-1.4476-22.4703c-.8575,0-1.3953.1889-1.8168.625-.4651.5087-.7413,1.3808-.7413,2.4127v1.7441l1.4389-.0291v1.0029c-.7267-.0145-.8139-.0145-1.0319-.0145h-1.6424c-.218,0-.2762,0-1.0319.0145v-1.0029l1.061.0291v-4.9563l-1.061.0291v-1.0029c.7413.0145.8139.0145,1.0319.0145h.3924c.1889,0,.2471,0,.7994-.0145l-.0145,1.3662c.436-.9447,1.3953-1.4825,2.6162-1.468v1.25Zm-5.5057,5.7557c-.7413-.0145-.8139-.0145-1.0319-.0145h-.4506c-.0436,0-.2035,0-.436.0145h-.3198l.0145-.8721c-.6395.6395-1.3517.9593-2.1511.9593-1.2209,0-1.8749-.6831-1.8749-1.9476v-4.0842l-1.0319.0291v-.9883c.7413.0145.8139.0145,1.0319.0145h.4506c.1889,0,.2326,0,.7558-.0145v4.8109c0,.6831.3779,1.061,1.0319,1.061.6104,0,1.2936-.407,1.7732-1.061v-3.8516l-1.0756.0291v-1.0029c.5087.0291.7413.0291,1.0465.0291h.4651c.2471,0,.4215,0,.7703-.0145v5.9301l1.0319-.0145v.9883Zm-1.6424-8.8079c0,.4215-.3488.7703-.7703.7703s-.7703-.3488-.7703-.7703c0-.436.3488-.7703.7849-.7703.407,0,.7558.3488.7558.7703m-2.4418,0c0,.4215-.3488.7703-.7703.7703s-.7703-.3488-.7703-.7703.3488-.7703.7849-.7703c.407,0,.7558.3488.7558.7703m-2.6627.3052l-1.0465.4215c-.1599-.6104-.3488-.8139-.7558-.8139-.4506,0-.6395.3198-.6395,1.061v.9738l1.2064-.0291v1.061l-1.2064-.0291v4.8836l1.2064-.0291v1.0029c-.7122-.0145-.7994-.0145-1.0174-.0145h-1.5261c-.2326,0-.2907,0-1.0465.0145v-1.0029l1.1773.0291v-4.8836l-1.1337.0291v-1.061l1.1337.0291v-.9593c0-1.3372.6541-2.0639,1.8459-2.0639.5668,0,1.061.2035,1.3517.5523.1599.2035.2616.3779.4506.8285m-5.2629,25.1011c-.2762.1453-.5668.2035-1.0319.2035-.6977,0-1.1918-.1889-1.4098-.5668-.1599-.2471-.2035-.4942-.2035-1.1628v-4.2441l-1.0029.0291v-1.0319l1.0029.0291v-1.3953l1.2064-.9593v2.3546l1.4098-.0291v1.061l-1.4098-.0291v4.0406c0,.5959.1599.7849.6686.7849.2907,0,.5232-.0436.7703-.1163v1.0319Zm-3.6031-16.7147c-.2762.1453-.5668.2035-1.0319.2035-.6977,0-1.1918-.1889-1.4098-.5668-.1599-.2471-.2035-.4942-.2035-1.1628v-4.2441l-1.0029.0291v-1.0319l1.0029.0291v-1.3953l1.2064-.9593v2.3546l1.4098-.0291v1.061l-1.4098-.0291v4.0406c0,.5959.1599.7849.6686.7849.2907,0,.5232-.0436.7703-.1163v1.0319Zm-3.747.1163c-.7413-.0145-.8139-.0145-1.0319-.0145h-.4506c-.0436,0-.2035,0-.436.0145h-.3198l.0145-.8721c-.6395.6395-1.3517.9593-2.1511.9593-1.2209,0-1.8749-.6831-1.8749-1.9476v-4.0842l-1.0319.0291v-.9883c.7413.0145.8139.0145,1.0319.0145h.4506c.1889,0,.2326,0,.7558-.0145v4.8109c0,.6831.3779,1.061,1.0319,1.061.6104,0,1.2936-.407,1.7732-1.061v-3.8516l-1.0756.0291v-1.0029c.5087.0291.7413.0291,1.0465.0291h.4651c.2471,0,.4215,0,.7703-.0145v5.9301l1.0319-.0145v.9883Zm-7.9111-.1163c-.2762.1453-.5668.2035-1.0319.2035-.6977,0-1.1918-.1889-1.4098-.5668-.1599-.2471-.2035-.4942-.2035-1.1628v-4.2441l-1.0029.0291v-1.0319l1.0029.0291v-1.3953l1.2064-.9593v2.3546l1.4098-.0291v1.061l-1.4098-.0291v4.0406c0,.5959.1599.7849.6686.7849.2907,0,.5232-.0436.7703-.1163v1.0319Zm-3.7375.1163c-.7558-.0145-.843-.0145-1.061-.0145h-1.2354c-.2326,0-.2907,0-1.0465.0145v-.9883l1.061.0145v-4.9708l-1.061.0291v-1.0029c.4796.0291.7122.0291,1.0319.0291h.5814c.0727,0,.2035,0,.3924-.0145h.2616v5.9301l1.0756-.0145v.9883Zm-.8285-9.1713c0,.436-.3779.8139-.8139.8139-.4506,0-.8139-.3634-.8139-.8139s.3779-.8139.8285-.8139c.4215,0,.7994.3779.7994.8139m-1.9425,19.8977v-2.7761l-1.0748.0291v-.9883c.6679.0145.7551.0145,1.0029.0145h.5232c.1882,0,.3634,0,.7558-.0145v8.7498l1.061-.0145v.9883c-.6831-.0145-.7711-.0145-1.0029-.0145h-.5087c-.1606,0-.2042,0-.7565.0145v-.9447c-.5516.6686-1.3655,1.0319-2.2957,1.0319-1.8023,0-3.0668-1.4534-3.0668-3.5319,0-2.0348,1.3219-3.5464,3.0951-3.5464.8437,0,1.6577.3634,2.2674,1.0029m-1.3161-10.8427c-.2762.1453-.5668.2035-1.0319.2035-.6977,0-1.1918-.1889-1.4098-.5668-.1599-.2471-.2035-.4942-.2035-1.1628v-4.2441l-1.0029.0291v-1.0319l1.0029.0291v-1.3953l1.2064-.9593v2.3546l1.4098-.0291v1.061l-1.4098-.0291v4.0406c0,.5959.1599.7849.6686.7849.2907,0,.5232-.0436.7703-.1163v1.0319Zm-8.5114-4.9999c0,.5378.3634.7558,1.7877,1.061,1.0319.218,1.4534.3634,1.8459.6395.4506.3052.7267.843.7267,1.4244,0,1.2064-1.061,2.093-2.5145,2.093-.7703,0-1.1482-.1453-2.0494-.7703l.0145.6831h-.9883c.0145-.4651.0145-.6686.0145-1.1918,0-.5523,0-.8139-.0145-1.2936h1.0029c-.0145.0872-.0145.218-.0145.2616,0,.7122.8721,1.3226,1.8895,1.3226.8575,0,1.4825-.4215,1.4825-1.0029,0-.3198-.1599-.5523-.5378-.7122q-.3198-.1453-1.7296-.4942c-1.4244-.3634-2.0784-.9593-2.0784-1.9186,0-1.1192,1.0029-1.9767,2.2819-1.9767.6541,0,1.2354.218,1.8749.6977l.0436-.5668h.9883l-.0145.3488c-.0145.4215-.0145.6977-.0145.7994,0,.0872,0,.3779.0145.7994,0,.0581,0,.2035.0145.3779h-1.0174l-.0145-.218c0-.3634-.0581-.4796-.3924-.7558-.3488-.3052-.8575-.4796-1.3662-.4796-.7267,0-1.2354.3634-1.2354.8721m-1.8866,5.1161h-.436c-.218-.0145-.3634-.0145-.4215-.0145h-.4506c-.0581,0-.2326,0-.4796.0145h-.4942v-4.6074c0-.9011-.3052-1.2645-1.0465-1.2645-.5814,0-1.2064.3343-1.7732.9447v3.9534l1.0756-.0145v.9883c-.7849-.0145-.8575-.0145-1.061-.0145h-1.2209c-.1889,0-.2616,0-1.061.0145v-.9883l1.061.0145v-4.9708l-1.061.0291v-1.0029c.5087.0291.7558.0291,1.0465.0291h.436c.1889,0,.2326,0,.7849-.0145l-.0145.7994c.9011-.6831,1.3808-.8866,2.1656-.8866.5668,0,1.0901.1889,1.3953.4942.3488.3488.4796.8139.4796,1.7587v3.7644l1.0756-.0145v.9883Zm-7.2193,9.9707c0,1.0901-.4796,1.9912-1.3081,2.4854-.6104.3634-1.1773.4796-2.3982.4796-.0581,0-.9302,0-1.3517-.0145v2.747l1.2645-.0291v1.0901c-.8721-.0291-.9738-.0291-1.2645-.0291h-1.3517c-.218,0-.2907,0-1.2064.0291v-1.0901l1.2064.0291v-7.6306l-1.2064.0291v-1.0901c.9883.0291,1.0174.0291,1.2064.0291h1.1482c2.5145,0,2.6307,0,3.2557.1889,1.279.3779,2.0058,1.3808,2.0058,2.7761m-.9302-9.9561c-.9011-.0291-.9883-.0291-1.2064-.0291h-1.3808c-.1744,0-.2471,0-1.1918.0291v-1.0901l1.2064.0291v-7.6306l-1.2064.0291v-1.0901q1.0756.0291,1.1918.0291h1.3808c.1889,0,.2762,0,1.2064-.0291v1.0901l-1.2209-.0291v7.6306l1.2209-.0291v1.0901Zm-5.9446,23.7058c.625,0,.8866,0,1.9767-.0291-.0145.6831-.0145.9157-.0145,1.5843,0,.9738,0,1.3372.0291,1.9622h-1.1337v-2.4709h-2.1366v7.6161l1.5407-.0291v1.0901c-.9011-.0291-.9738-.0291-1.2209-.0291h-1.9767c-.2326,0-.3052,0-1.2209.0291v-1.0901l1.5261.0291v-7.6161h-2.1802l.0145,2.5145h-1.1192c.0145-.5232.0145-1.1192.0145-3.154v-.436c.5814.0291.8721.0291,1.8168.0291h4.0842Zm-8.1393,17.7466l1.7441,6.3952,1.686-6.3952-1.1773.0291v-1.0901c.4796.0291.7267.0291,1.1482.0291h2.2383c.3779,0,.6104,0,1.0756-.0291v1.0901l-1.1192-.0291,1.686,6.3952,1.7587-6.3952-1.1918.0291v-1.0901c.4942.0291.7413.0291,1.1628.0291h1.468c.2616,0,.4651,0,.8721-.0291v1.0901l-1.1482-.0291-2.311,8.6916h-1.2209l-2.2528-8.3864-2.2238,8.3864h-1.2064l-2.3255-8.6916-1.1773.0291v-1.0901c.4506.0291.6686.0291.9593.0291h1.4971c.5378,0,.7558,0,1.2209-.0291v1.0901l-1.1628-.0291Zm10.9939,5.2906c0-2.0494,1.4098-3.6046,3.2703-3.6046,1.1482,0,2.1656.625,2.7034,1.6569.3198.625.4506,1.2645.4506,2.2092h-5.2033c.0436.6395.2035,1.0901.5523,1.4971s1.0465.7122,1.6133.7122c.407,0,1.0465-.2326,1.4098-.5087.218-.1744.3779-.3343.6541-.7267l1.0465.407c-.7703,1.1773-1.9186,1.8459-3.1685,1.8459-1.9331,0-3.3284-1.4534-3.3284-3.4883m.718-16.453c.0436.6395.2035,1.0901.5523,1.4971s1.0465.7122,1.6133.7122c.407,0,1.0465-.2326,1.4098-.5087.218-.1744.3779-.3343.6541-.7267l1.0465.407c-.7703,1.1773-1.9186,1.8459-3.1685,1.8459-1.9331,0-3.3284-1.4534-3.3284-3.4883,0-2.0494,1.4098-3.6046,3.2703-3.6046,1.1482,0,2.1656.625,2.7034,1.6569.3198.625.4506,1.2645.4506,2.2092h-5.2033Zm6.2556-19.1274c.436-.9447,1.3953-1.4825,2.6162-1.468v1.25c-.8575,0-1.3953.1889-1.8168.625-.4651.5087-.7413,1.3808-.7413,2.4127v1.7441l1.4389-.0291v1.0029c-.7267-.0145-.8139-.0145-1.0319-.0145h-1.6424c-.218,0-.2762,0-1.0319.0145v-1.0029l1.061.0291v-4.9563l-1.061.0291v-1.0029c.7413.0145.8139.0145,1.0319.0145h.3924c.1889,0,.2471,0,.7994-.0145l-.0145,1.3662Zm-.186,18.764c0-2.0203,1.3808-3.5028,3.2848-3.5028.8721,0,1.5261.2471,2.2383.843l-.0145-.7558h1.0029c-.0291.8866-.0291,1.0465-.0291,1.3081,0,.2326,0,.4215.0291,1.3808h-1.0174c-.1308-.5523-.2616-.843-.4942-1.0901-.3343-.3488-.9302-.5668-1.5407-.5668-1.3662,0-2.1802.8866-2.1802,2.3546,0,1.5261.9011,2.4854,2.311,2.4854.9593,0,1.6569-.4796,2.1366-1.4534l1.0174.5378c-.7267,1.3662-1.7877,2.0348-3.2267,2.0348-2.0348,0-3.5173-1.4971-3.5173-3.5755m.2253,13.2991c.7413.0145.8139.0145,1.0319.0145h.3924c.1889,0,.2471,0,.7994-.0145l-.0145,1.3662c.436-.9447,1.3953-1.4825,2.6162-1.468v1.25c-.8575,0-1.3953.1889-1.8168.625-.4651.5087-.7413,1.3808-.7413,2.4127v1.7441l1.4389-.0291v1.0029c-.7267-.0145-.8139-.0145-1.0319-.0145h-1.6424c-.218,0-.2762,0-1.0319.0145v-1.0029l1.061.0291v-4.9563l-1.061.0291v-1.0029Zm4.9955-2.8197c.7849.0145.8575.0145,1.0465.0145h.407c.1453,0,.2035,0,.8139-.0145v6.0754l2.5581-2.3401-1.1192.0291v-.9447c.6831.0145.8139.0145,1.1628.0145h1.3226c.0291,0,.2035,0,.4506-.0145h.4215v.9447l-.8721-.0145-2.4999,2.3255,2.9214,2.6743,1.0174-.0291.0145,1.0029c-.5668-.0145-.625-.0145-.9011-.0145-.218,0-.407,0-.7558.0145l-3.7208-3.5173v2.5435l1.0756-.0145v.9883c-.7703-.0145-.843-.0145-1.0465-.0145h-1.25c-.1889,0-.2616,0-1.0465.0145v-.9883l1.061.0145v-7.7905l-1.061.0291v-.9883Zm1.4098-23.604c-1.9331,0-3.2703-1.4244-3.2703-3.5028,0-2.1366,1.3372-3.59,3.2993-3.59,1.904,0,3.2557,1.4825,3.2557,3.561,0,2.093-1.3372,3.5319-3.2848,3.5319m4.9534,9.6218c.5959,0,1.1337.2035,1.4825.5523.3198.3343.4215.6977.4215,1.4825v3.9825l1.061-.0145v.9883c-.4796-.0145-.6831-.0145-1.061-.0145h-1.2064v-4.5202c0-.6104-.0436-.843-.2035-1.0174-.1599-.1889-.4796-.3198-.8285-.3198-.6541,0-1.3081.3924-1.7587,1.0465v3.8516l1.0756-.0145v.9883c-.4796-.0145-.6977-.0145-1.061-.0145h-1.2354c-.3924,0-.5959,0-1.0465.0145v-.9883l1.061.0145v-7.7905l-1.061.0291v-.9883c.7267.0145.8139.0145,1.0319.0145h.5814c.1163,0,.1599,0,.6541-.0145v3.6046c.6104-.5814,1.3226-.8721,2.093-.8721m1.904,22.7755l4.1278-4.9999h-2.8488v1.4534h-.9593l.0145-1.7296c0-.2035,0-.3779-.0145-.6977.6831.0145.7994.0145,1.1628.0145h2.9069c.3488,0,.436,0,1.2354-.0145v1.0029l-4.1423,4.9272h3.1685l-.0145-1.4244h.9883c-.0291.6686-.0291.843-.0291,1.2064,0,.3779,0,.4942.0291,1.1918-.7558-.0145-.8575-.0145-1.2064-.0145h-3.2267c-.1744,0-.2471,0-1.1918.0145v-.9302Zm5.7033-21.6564c-.5821,0-1.2064.3343-1.7732.9447v3.9534l1.0756-.0145v.9883c-.7856-.0145-.8575-.0145-1.0617-.0145h-1.2209c-.1889,0-.2609,0-1.0603.0145v-.9883l1.0603.0145v-4.9708l-1.0603.0291v-1.0029c.508.0291.7558.0291,1.0465.0291h.436c.1889,0,.2326,0,.7849-.0145l-.0145.7994c.9011-.6831,1.3808-.8866,2.1649-.8866.5676,0,1.0901.1889,1.396.4942.3488.3488.4796.8139.4796,1.7587v3.7644l1.0748-.0145v.9883h-.4353c-.218-.0145-.3634-.0145-.4222-.0145h-.4498c-.0589,0-.2333,0-.4796.0145h-.4942v-4.6074c0-.9011-.306-1.2645-1.0465-1.2645m.7798,19.2001c0-2.0494,1.4098-3.6046,3.2703-3.6046,1.1482,0,2.1656.625,2.7034,1.6569.3198.625.4506,1.2645.4506,2.2092h-5.2033c.0436.6395.2035,1.0901.5523,1.4971s1.0465.7122,1.6133.7122c.407,0,1.0465-.2326,1.4098-.5087.218-.1744.3779-.3343.6541-.7267l1.0465.407c-.7703,1.1773-1.9186,1.8459-3.1685,1.8459-1.9331,0-3.3284-1.4534-3.3284-3.4883m6.7891-3.5173c.7413.0145.8139.0145,1.0319.0145h.4506c.1889,0,.2326,0,.7558-.0145v4.8109c0,.6831.3779,1.061,1.0319,1.061.6104,0,1.2936-.407,1.7732-1.061v-3.8516l-1.0756.0291v-1.0029c.5087.0291.7413.0291,1.0465.0291h.4651c.2471,0,.4215,0,.7703-.0145v5.9301l1.0319-.0145v.9883c-.7413-.0145-.8139-.0145-1.0319-.0145h-.4506c-.0436,0-.2035,0-.436.0145h-.3198l.0145-.8721c-.6395.6395-1.3517.9593-2.1511.9593-1.2209,0-1.8749-.6831-1.8749-1.9476v-4.0842l-1.0319.0291v-.9883Zm13.1334,6.1481v-.407c-.6395.6831-1.4825,1.0465-2.3546,1.0465-1.7732,0-3.0377-1.4244-3.0377-3.4156,0-2.0058,1.3081-3.4592,3.0958-3.4592.8866,0,1.686.3488,2.2964,1.0174l-.0291-.9302h.2616c.2326,0,.3924,0,.4506.0145h.5232l.625-.0145c.0727,0,.2035,0,.407-.0145v1.0029l-1.061-.0145v4.2877c0,1.6569-.0145,1.9331-.1017,2.3401-.3343,1.4098-1.4244,2.1366-3.1976,2.1366-1.061,0-1.8023-.2471-2.8342-.9593l.625-.9011c.7122.5378,1.3808.7558,2.2528.7558,1.4389,0,2.0784-.7703,2.0784-2.4854m2.5493-36.0746c0-2.1366,1.3372-3.59,3.2993-3.59,1.904,0,3.2557,1.4825,3.2557,3.561,0,2.093-1.3372,3.5319-3.2848,3.5319-1.9331,0-3.2703-1.4244-3.2703-3.5028m1.7122,13.1246c.8866,0,1.686.3488,2.2964,1.0174l-.0291-.9302h.2616c.2326,0,.3924,0,.4506.0145h.5232l.625-.0145c.0727,0,.2035,0,.407-.0145v1.0029l-1.061-.0145v4.2877c0,1.6569-.0145,1.9331-.1017,2.3401-.3343,1.4098-1.4244,2.1366-3.1976,2.1366-1.061,0-1.8023-.2471-2.8342-.9593l.625-.9011c.7122.5378,1.3808.7558,2.2528.7558,1.4389,0,2.0784-.7703,2.0784-2.4854v-.407c-.6395.6831-1.4825,1.0465-2.3546,1.0465-1.7732,0-3.0377-1.4244-3.0377-3.4156,0-2.0058,1.3081-3.4592,3.0958-3.4592m-7.2324,0c1.904,0,3.2557,1.4825,3.2557,3.561,0,2.093-1.3372,3.5319-3.2848,3.5319-1.9331,0-3.2703-1.4244-3.2703-3.5028,0-2.1366,1.3372-3.59,3.2993-3.59m-5.994,6.0173v-7.7905l-1.061.0291v-.9883c.7122.0145.7994.0145,1.0174.0145h.4942c.1889,0,.2326,0,.7558-.0145v8.7498l1.0756-.0145v.9883c-.6977-.0145-.7849-.0145-1.0465-.0145h-1.279c-.218,0-.2907,0-1.0174.0145v-.9883l1.061.0145Zm-4.7688-6.0173c1.904,0,3.2557,1.4825,3.2557,3.561,0,2.093-1.3372,3.5319-3.2848,3.5319-1.9331,0-3.2703-1.4244-3.2703-3.5028,0-2.1366,1.3372-3.59,3.2993-3.59m-2.6409-11.8165v-3.8516l-1.0756.0291v-1.0029c.5087.0291.7413.0291,1.0465.0291h.4651c.2471,0,.4215,0,.7703-.0145v5.9301l1.0319-.0145v.9883c-.7413-.0145-.8139-.0145-1.0319-.0145h-.4506c-.0436,0-.2035,0-.436.0145h-.3198l.0145-.8721c-.6395.6395-1.3517.9593-2.1511.9593-1.2209,0-1.8749-.6831-1.8749-1.9476v-4.0842l-1.0319.0291v-.9883c.7413.0145.8139.0145,1.0319.0145h.4506c.1889,0,.2326,0,.7558-.0145v4.8109c0,.6831.3779,1.061,1.0319,1.061.6104,0,1.2936-.407,1.7732-1.061m6.5739-1.5552l2.9214,2.6743,1.0174-.0291.0145,1.0029c-.5668-.0145-.625-.0145-.9011-.0145-.218,0-.407,0-.7558.0145l-3.7208-3.5173v2.5435l1.0756-.0145v.9883c-.7703-.0145-.843-.0145-1.0465-.0145h-1.25c-.1889,0-.2616,0-1.0465.0145v-.9883l1.061.0145v-7.7905l-1.061.0291v-.9883c.7849.0145.8575.0145,1.0465.0145h.407c.1453,0,.2035,0,.8139-.0145v6.0754l2.5581-2.3401-1.1192.0291v-.9447c.6831.0145.8139.0145,1.1628.0145h1.3226c.0291,0,.2035,0,.4506-.0145h.4215v.9447l-.8721-.0145-2.4999,2.3255Zm10.2875-4.7092c-.4506,0-.8139-.3634-.8139-.8139s.3779-.8139.8285-.8139c.4215,0,.7994.3779.7994.8139s-.3779.8139-.8139.8139m1.6424,7.369v.9883c-.7558-.0145-.843-.0145-1.061-.0145h-1.2354c-.2326,0-.2907,0-1.0465.0145v-.9883l1.061.0145v-4.9708l-1.061.0291v-1.0029c.4796.0291.7122.0291,1.0319.0291h.5814c.0727,0,.2035,0,.3924-.0145h.2616v5.9301l1.0756-.0145Zm9.0107,9.3457c-.4506,0-.8139-.3634-.8139-.8139s.3786-.8139.8292-.8139c.4215,0,.7987.3779.7987.8139s-.3772.8139-.8139.8139m1.6431,7.369v.9883c-.7558-.0145-.843-.0145-1.061-.0145h-1.2354c-.2326,0-.2907,0-1.0465.0145v-.9883l1.0603.0145v-4.9708l-1.0603.0291v-1.0029c.4789.0291.7122.0291,1.0319.0291h.5807c.0734,0,.2042,0,.3932-.0145h.2616v5.9301l1.0756-.0145Zm-9.9009,10.7846c.5087.0291.7413.0291,1.0465.0291h.4215c.1599,0,.218,0,.7994-.0145l-.0145.8139c.8575-.6977,1.3808-.9157,2.1366-.9157.8721,0,1.3517.2762,1.7441,1.0029.8139-.7413,1.3517-.9883,2.1656-.9883.625,0,1.1337.2035,1.4825.5668.3343.3634.4215.6831.4215,1.5407v3.9098l1.061-.0145v.9883c-.4215-.0145-.5814-.0145-.9302-.0145h-.5814c-.1744,0-.3488,0-.7558.0145v-4.7528c0-.7558-.3052-1.1192-.9593-1.1192-.6686,0-1.2354.3343-1.7877,1.0319v3.8662l1.061-.0145v.9883c-.4506-.0145-.6541-.0145-.9302-.0145h-.5232c-.2326,0-.3924,0-.8139.0145v-4.622c0-.5523-.0291-.6977-.1889-.9157s-.4651-.3488-.8139-.3488c-.6395,0-1.2645.3634-1.7732,1.0465v3.8662l1.0756-.0145v.9883c-.4215-.0145-.5668-.0145-1.061-.0145h-1.2354c-.4942,0-.625,0-1.0465.0145v-.9883l1.061.0145v-4.9708l-1.061.0291v-1.0029Zm11.528-12.9212c.0436.6395.2035,1.0901.5523,1.4971s1.0465.7122,1.6133.7122c.407,0,1.0465-.2326,1.4098-.5087.218-.1744.3779-.3343.6541-.7267l1.0465.407c-.7703,1.1773-1.9186,1.8459-3.1685,1.8459-1.9331,0-3.3284-1.4534-3.3284-3.4883,0-2.0494,1.4098-3.6046,3.2703-3.6046,1.1482,0,2.1656.625,2.7034,1.6569.3198.625.4506,1.2645.4506,2.2092h-5.2033Zm.3786,17.7466c0-1.279,1.0465-2.2092,2.4999-2.2092.6541,0,1.0319.1017,1.9622.5087v-.7558c0-.5523-.1017-.8721-.3634-1.0901-.2907-.2471-.7267-.3779-1.2209-.3779-.8139,0-1.3662.3198-1.6715.9447l-.9883-.2907c.3488-1.0029,1.468-1.6279,2.8924-1.6279.843,0,1.5552.2471,2.0203.6831.4215.3924.5378.7994.5378,1.8168v3.5173l1.061-.0145v.9883c-.7122-.0145-.7849-.0145-1.0174-.0145h-.7558c-.1308,0-.2471,0-.4942.0145v-.7703c-.6541.5668-1.3808.8575-2.1366.8575-1.3372,0-2.3255-.9302-2.3255-2.1802m7.4606.9157c0-.5523,0-.8139-.0145-1.2936h1.0029c-.0145.0872-.0145.218-.0145.2616,0,.7122.8721,1.3226,1.8895,1.3226.8575,0,1.4825-.4215,1.4825-1.0029,0-.3198-.1599-.5523-.5378-.7122q-.3198-.1453-1.7296-.4942c-1.4244-.3634-2.0784-.9593-2.0784-1.9186,0-1.1192,1.0029-1.9767,2.2819-1.9767.6541,0,1.2354.218,1.8749.6977l.0436-.5668h.9883l-.0145.3488c-.0145.4215-.0145.6977-.0145.7994,0,.0872,0,.3779.0145.7994,0,.0581,0,.2035.0145.3779h-1.0174l-.0145-.218c0-.3634-.0581-.4796-.3924-.7558-.3488-.3052-.8575-.4796-1.3662-.4796-.7267,0-1.2354.3634-1.2354.8721,0,.5378.3634.7558,1.7877,1.061,1.0319.218,1.4534.3634,1.8459.6395.4506.3052.7267.843.7267,1.4244,0,1.2064-1.061,2.093-2.5145,2.093-.7703,0-1.1482-.1453-2.0494-.7703l.0145.6831h-.9883c.0145-.4651.0145-.6686.0145-1.1918m6.308-2.311c0-2.0203,1.3808-3.5028,3.2848-3.5028.8721,0,1.5261.2471,2.2383.843l-.0145-.7558h1.0029c-.0291.8866-.0291,1.0465-.0291,1.3081,0,.2326,0,.4215.0291,1.3808h-1.0174c-.1308-.5523-.2616-.843-.4942-1.0901-.3343-.3488-.9302-.5668-1.5407-.5668-1.3662,0-2.1802.8866-2.1802,2.3546,0,1.5261.9011,2.4854,2.311,2.4854.9593,0,1.6569-.4796,2.1366-1.4534l1.0174.5378c-.7267,1.3662-1.7877,2.0348-3.2267,2.0348-2.0348,0-3.5173-1.4971-3.5173-3.5755m7.0558-19.0983c-.5814,0-1.2064.3343-1.7732.9447v3.9534l1.0756-.0145v.9883c-.7849-.0145-.8575-.0145-1.061-.0145h-1.2209c-.1889,0-.2616,0-1.061.0145v-.9883l1.061.0145v-4.9708l-1.061.0291v-1.0029c.5087.0291.7558.0291,1.0465.0291h.436c.1889,0,.2326,0,.7849-.0145l-.0145.7994c.9011-.6831,1.3808-.8866,2.1656-.8866.5668,0,1.0901.1889,1.3953.4942.3488.3488.4796.8139.4796,1.7587v3.7644l1.0756-.0145v.9883h-.436c-.218-.0145-.3634-.0145-.4215-.0145h-.4506c-.0581,0-.2326,0-.4796.0145h-.4942v-4.6074c0-.9011-.3052-1.2645-1.0465-1.2645m.1679,12.863c.7267.0145.8139.0145,1.0319.0145h.5814c.1163,0,.1599,0,.6541-.0145v3.6046c.6104-.5814,1.3226-.8721,2.093-.8721.5959,0,1.1337.2035,1.4825.5523.3198.3343.4215.6977.4215,1.4825v3.9825l1.061-.0145v.9883c-.4796-.0145-.6831-.0145-1.061-.0145h-1.2064v-4.5202c0-.6104-.0436-.843-.2035-1.0174-.1599-.1889-.4796-.3198-.8285-.3198-.6541,0-1.3081.3924-1.7587,1.0465v3.8516l1.0756-.0145v.9883c-.4796-.0145-.6977-.0145-1.061-.0145h-1.2354c-.3924,0-.5959,0-1.0465.0145v-.9883l1.061.0145v-7.7905l-1.061.0291v-.9883Zm9.6415-.2616c.4215,0,.7994.3779.7994.8139s-.3779.8139-.8139.8139c-.4506,0-.8139-.3634-.8139-.8139s.3779-.8139.8285-.8139m-.7616-12.7177v-2.7761l-1.0756.0291v-.9883c.6686.0145.7558.0145,1.0029.0145h.5232c.1889,0,.3634,0,.7558-.0145v8.7498l1.061-.0145v.9883c-.6831-.0145-.7703-.0145-1.0029-.0145h-.5087c-.1599,0-.2035,0-.7558.0145v-.9447c-.5523.6686-1.3662,1.0319-2.2964,1.0319-1.8023,0-3.0668-1.4534-3.0668-3.5319,0-2.0348,1.3226-3.5464,3.0958-3.5464.843,0,1.6569.3634,2.2674,1.0029m-.9535,15.7845c.4796.0291.7122.0291,1.0319.0291h.5814c.0727,0,.2035,0,.3924-.0145h.2616v5.9301l1.0756-.0145v.9883c-.7558-.0145-.843-.0145-1.061-.0145h-1.2354c-.2326,0-.2907,0-1.0465.0145v-.9883l1.061.0145v-4.9708l-1.061.0291v-1.0029Zm4.0159,0c.5087.0291.7558.0291,1.0465.0291h.436c.1889,0,.2326,0,.7849-.0145l-.0145.7994c.9011-.6831,1.3808-.8866,2.1656-.8866.5668,0,1.0901.1889,1.3953.4942.3488.3488.4796.8139.4796,1.7587v3.7644l1.0756-.0145v.9883h-.436c-.218-.0145-.3634-.0145-.4215-.0145h-.4506c-.0581,0-.2326,0-.4796.0145h-.4942v-4.6074c0-.9011-.3052-1.2645-1.0465-1.2645-.5814,0-1.2064.3343-1.7732.9447v3.9534l1.0756-.0145v.9883c-.7849-.0145-.8575-.0145-1.061-.0145h-1.2209c-.1889,0-.2616,0-1.061.0145v-.9883l1.061.0145v-4.9708l-1.061.0291v-1.0029Zm7.6975,3.5319c0-2.0494,1.4098-3.6046,3.2703-3.6046,1.1482,0,2.1656.625,2.7034,1.6569.3198.625.4506,1.2645.4506,2.2092h-5.2033c.0436.6395.2035,1.0901.5523,1.4971s1.0465.7122,1.6133.7122c.407,0,1.0465-.2326,1.4098-.5087.218-.1744.3779-.3343.6541-.7267l1.0465.407c-.7703,1.1773-1.9186,1.8459-3.1685,1.8459-1.9331,0-3.3284-1.4534-3.3284-3.4883m7.0129-3.5319c.5087.0291.7558.0291,1.0465.0291h.436c.1889,0,.2326,0,.7849-.0145l-.0145.7994c.9011-.6831,1.3808-.8866,2.1656-.8866.5668,0,1.0901.1889,1.3953.4942.3488.3488.4796.8139.4796,1.7587v3.7644l1.0756-.0145v.9883h-.436c-.218-.0145-.3634-.0145-.4215-.0145h-.4506c-.0581,0-.2326,0-.4796.0145h-.4942v-4.6074c0-.9011-.3052-1.2645-1.0465-1.2645-.5814,0-1.2064.3343-1.7732.9447v3.9534l1.0756-.0145v.9883c-.7849-.0145-.8575-.0145-1.061-.0145h-1.2209c-.1889,0-.2616,0-1.061.0145v-.9883l1.061.0145v-4.9708l-1.061.0291v-1.0029Zm50.6636,18.1703V1.3193h-165.893l-23.628,82.4004h189.521Z"/>
    <path class="cls-1" d="m112.6094,71.974h-8.2483v1.6002h3.2332v10.1458h1.7819v-10.1458h3.2332v-1.6002Zm-13.8456,1.6002c.8415,0,1.5014.2478,1.9963.7921.6104.6759.6272,1.7812.6272,3.3982s-.0167,2.8865-.6272,3.5631c-.4949.5443-1.1548.7921-1.9963.7921h-2.1606v-8.5456h2.1606Zm.1817-1.6002h-4.1242v11.746h4.1242c1.2209,0,2.2928-.3634,3.0355-1.1053,1.2703-1.2703,1.1875-3.1511,1.1875-4.8502s.0828-3.4149-1.1875-4.6852c-.7427-.742-1.8146-1.1053-3.0355-1.1053m-15.142-58.1699h9.8849l10.2265,36.0266,1.7165-5.9875-9.3762-33.1844h-13.3536l.9019,3.1453Zm2.6852,66.0389l1.8313-5.2128,1.7819,5.2128h-3.6133Zm1.0726-7.869l-4.3058,11.746h1.8975l.8081-2.3597h4.6358l.8081,2.3597h1.8975l-4.3058-11.746h-1.4353Zm-3.2412,0h-8.2483v1.6002h3.2332v10.1458h1.7812v-10.1458h3.2339v-1.6002Zm-16.1769,9.1226l-1.1875,1.1715c1.1213,1.1381,2.3917,1.5508,4.1569,1.5508,2.4585,0,4.223-1.287,4.223-3.4483,0-1.0058-.3132-1.8473-.9564-2.4084-.4949-.4455-1.1053-.7093-2.194-.8742l-1.3364-.1977c-.5443-.0828-1.0225-.2805-1.3197-.5443-.3132-.2805-.4455-.6599-.4455-1.0894,0-1.0392.7587-1.8306,2.1446-1.8306.9898,0,1.8313.2144,2.5573.907l1.1381-1.1213c-1.0065-.9404-2.0951-1.3364-3.646-1.3364-2.4411,0-3.9258,1.4019-3.9258,3.4476,0,.9571.2805,1.6991.8575,2.2441.5116.4782,1.2703.8081,2.2274.9397l1.3851.1984c.6933.0988.9898.2144,1.287.4949.3132.2805.4622.7093.4622,1.2209,0,1.1381-.891,1.7979-2.4251,1.7979-1.2042,0-2.1446-.2638-3.0028-1.1221m.6402-24.6941l-3.5094-.6824,3.3037,11.5193h13.5999l8.39-29.2601-1.6569-5.7782-9.1335,31.8531h-8.7999l-2.194-7.6517ZM49.707,10.6595v53.5589h-6.6677v-12.8201l-3.1474-.6119v16.453h12.9611V13.8048h10.6625l10.2628,35.7897,1.6569-5.7789-9.5077-33.1568-16.2205.0007Zm6.9729,61.3145h-1.7812v11.746h1.7812v-7.853l2.7717,5.7244h1.3197l2.7056-5.7244v7.853h1.7812v-11.746h-1.7812l-3.3655,7.3079-3.4316-7.3079Zm-7.7251,1.6002c1.1882,0,1.9963.6926,1.9963,1.8473,0,1.1555-.8081,1.8313-1.9963,1.8313h-2.6395v-3.6787h2.6395Zm.1323-1.6002h-4.5529v11.746h1.7812v-4.949h2.2274l2.4745,4.949h2.0784l-2.7056-5.1968c1.3197-.3626,2.3422-1.4353,2.3422-3.1176,0-1.9963-1.4186-3.4316-3.6453-3.4316m-12.8856,7.869l1.8313-5.2128,1.7812,5.2128h-3.6125Zm1.0719-7.869l-4.3051,11.746h1.8968l.8088-2.3597h4.635l.8088,2.3597h1.8968l-4.3058-11.746h-1.4353Zm-9.4467,1.6002c.8408,0,1.5007.2478,1.9956.7921.6104.6759.6272,1.7812.6272,3.3982s-.0167,2.8865-.6272,3.5631c-.4949.5443-1.1548.7921-1.9956.7921h-2.1613v-8.5456h2.1613Zm.181-1.6002h-4.1242v11.746h4.1242c1.2209,0,2.2935-.3634,3.0355-1.1053,1.2703-1.2703,1.1882-3.1511,1.1882-4.8502s.0821-3.4149-1.1882-4.6852c-.742-.742-1.8146-1.1053-3.0355-1.1053m-16.7932,0h-1.7812v7.7869c0,2.4244,1.8146,4.058,4.2063,4.058s4.223-1.6337,4.223-4.058v-7.7869h-1.7812v7.704c0,1.5675-.9731,2.5406-2.4418,2.5406s-2.4251-.9731-2.4251-2.5406v-7.704Zm-3.3814,0H-.4152v1.6002h3.2332v10.1458h1.7819v-10.1458h3.2332v-1.6002ZM109.7338,13.844l3.5915-12.5244H-.4152v12.3616l26.5749-.0087c9.3035-.0022,13.9713,7.2956,13.9815,14.5926.0036,7.2912-4.6496,14.5803-13.9815,14.5803-4.316.0015-16.7597.0007-16.7597.0007l.0015,21.3708H2.7308v-21.3708H-.4152v24.3925h12.9619l-.0007-21.3323h13.6137c23.0771,0,22.9463-35.2476,0-35.2476H2.7308v-6.1524h106.3663l-2.678,9.3377h3.3146ZM26.4061,33.4547H9.4007v3.0254l16.9668.0007c9.2519,0,10.0164-16.4821-.3038-16.4828l-16.6631.0007v3.0203h16.6602c5.9664-.0007,5.3538,10.4358.3452,10.4358M131.4258,1.3196h-13.2155l-.9135,3.186h9.9016l-17.0751,59.5485h-8.7999l-.4026-1.4048-3.5094-.6824,1.5116,5.2724h13.6006L131.4258,1.3196Z"/>
  </g>
</svg>